<?xml version="1.0" standalone="no"?>
<!DOCTYPE svg PUBLIC "-//W3C//DTD SVG 20010904//EN"
 "http://www.w3.org/TR/2001/REC-SVG-20010904/DTD/svg10.dtd">
<svg version="1.0" xmlns="http://www.w3.org/2000/svg"
 width="756.000000pt" height="426.000000pt" viewBox="0 0 756.000000 426.000000"
 preserveAspectRatio="xMidYMid meet">

<g transform="translate(0.000000,426.000000) scale(0.100000,-0.100000)"
fill="#000000" stroke="none">
<path d="M2420 3989 c-379 -42 -619 -128 -771 -279 -215 -213 -224 -510 -30
-915 49 -103 166 -305 175 -305 2 0 -8 28 -21 62 -14 34 -38 113 -54 175 -162
641 147 983 887 983 697 0 1474 -297 2199 -840 251 -189 511 -420 622 -553
266 -319 399 -644 363 -886 -39 -258 -223 -440 -570 -566 l-95 -34 75 0 c349
-3 684 178 815 439 119 239 84 544 -101 873 -103 182 -295 421 -485 601 -681
648 -1632 1121 -2474 1231 -148 20 -421 27 -535 14z"/>
<path d="M1947 2852 c-37 -7 -16 -30 35 -36 86 -12 144 -50 180 -120 11 -21
149 -391 308 -821 159 -431 293 -792 299 -804 22 -40 55 -19 86 54 9 22 80
202 157 400 219 564 426 1083 461 1159 41 87 79 122 146 131 52 7 70 18 50 31
-17 10 -471 12 -492 2 -28 -14 -12 -25 48 -33 57 -7 85 -24 85 -54 0 -32 -30
-121 -231 -683 -109 -306 -199 -561 -199 -567 0 -50 -43 66 -213 572 -108 320
-201 602 -206 627 -15 68 1 92 69 107 30 6 57 12 59 12 3 1 0 6 -6 12 -9 9
-102 12 -316 13 -167 1 -311 0 -320 -2z"/>
<path d="M3403 2228 c-4 -7 -13 -380 -19 -828 -9 -640 -15 -824 -25 -855 -16
-45 -46 -65 -101 -65 -46 0 -68 -8 -68 -26 0 -12 47 -14 279 -14 195 0 282 3
287 11 10 17 -16 29 -63 29 -79 0 -115 28 -134 107 -9 34 -43 1143 -36 1150 2
1 80 -88 173 -199 93 -111 301 -351 463 -533 553 -620 546 -614 574 -586 7 7
14 281 23 819 8 504 16 824 23 849 15 54 40 74 103 82 38 4 54 11 56 23 3 15
-18 17 -270 15 -235 -2 -273 -4 -273 -17 0 -11 17 -16 69 -21 61 -5 73 -10 97
-36 18 -21 29 -47 33 -79 7 -51 26 -814 26 -1037 0 -71 -4 -127 -9 -125 -4 2
-105 116 -223 254 -118 137 -274 317 -348 400 -73 82 -239 272 -367 422 -129
149 -240 272 -248 272 -8 0 -17 -6 -22 -12z"/>
</g>
</svg>
